<?xml version="1.0" encoding="UTF-8"?><svg id="b" xmlns="http://www.w3.org/2000/svg" viewBox="0 0 73.9 94.2"><defs><style>.d{fill:#02c49c;}.e{fill:#ff5306;}.f{fill:#ff8140;}.g{fill:#c4c8b0;}.h{fill:#4cd1dc;}</style></defs><g id="c"><g><g><path class="g" d="M37.16,92.57c.2-.48,.68-.99,1.43-1.53,.65-.47,1.08-.8,1.27-1,.3-.32,.44-.66,.44-1.03,0-.3-.08-.56-.25-.76s-.41-.3-.73-.3c-.43,0-.72,.16-.88,.48-.09,.19-.14,.48-.16,.89h-1.38c.02-.61,.13-1.11,.33-1.49,.38-.72,1.05-1.08,2.02-1.08,.76,0,1.37,.21,1.82,.63s.68,.98,.68,1.68c0,.53-.16,1.01-.48,1.42-.21,.28-.55,.58-1.03,.92l-.57,.4c-.36,.25-.6,.43-.73,.55-.13,.11-.24,.24-.33,.39h3.15v1.25h-4.94c.01-.52,.12-.99,.33-1.42Z"/><path class="g" d="M47.28,87.7c.37,.65,.55,1.57,.55,2.76s-.18,2.11-.55,2.75-1.01,.96-1.93,.96-1.56-.32-1.93-.96-.55-1.56-.55-2.75,.18-2.11,.55-2.76,1.01-.97,1.93-.97,1.56,.32,1.93,.97Zm-2.77,4.66c.14,.44,.41,.66,.84,.66s.7-.22,.83-.66c.13-.44,.2-1.07,.2-1.9s-.07-1.51-.2-1.93c-.13-.42-.41-.63-.83-.63s-.7,.21-.84,.63c-.14,.42-.2,1.06-.2,1.93s.07,1.46,.2,1.9Z"/><path class="g" d="M49.26,92.57c.2-.48,.68-.99,1.43-1.53,.65-.47,1.08-.8,1.27-1,.3-.32,.44-.66,.44-1.03,0-.3-.08-.56-.25-.76s-.41-.3-.73-.3c-.43,0-.72,.16-.88,.48-.09,.19-.14,.48-.16,.89h-1.38c.02-.61,.13-1.11,.33-1.49,.38-.72,1.05-1.08,2.02-1.08,.76,0,1.37,.21,1.82,.63s.68,.98,.68,1.68c0,.53-.16,1.01-.48,1.42-.21,.28-.55,.58-1.03,.92l-.57,.4c-.36,.25-.6,.43-.73,.55-.13,.11-.24,.24-.33,.39h3.15v1.25h-4.94c.01-.52,.12-.99,.33-1.42Z"/><path class="g" d="M56.35,91.78c0,.29,.05,.53,.14,.72,.17,.35,.48,.52,.94,.52,.28,0,.52-.09,.73-.29,.21-.19,.31-.46,.31-.82,0-.47-.19-.79-.57-.95-.22-.09-.56-.13-1.03-.13v-1.01c.46,0,.78-.05,.96-.13,.31-.14,.47-.42,.47-.84,0-.28-.08-.5-.24-.67s-.39-.26-.68-.26c-.33,0-.58,.11-.74,.32-.16,.21-.23,.5-.23,.85h-1.32c.01-.36,.07-.7,.18-1.02,.12-.28,.3-.54,.55-.78,.19-.17,.41-.3,.66-.39,.25-.09,.57-.13,.94-.13,.69,0,1.24,.18,1.67,.53,.42,.36,.63,.83,.63,1.43,0,.42-.13,.78-.38,1.07-.16,.18-.32,.31-.5,.37,.13,0,.31,.11,.56,.33,.36,.34,.54,.79,.54,1.37,0,.61-.21,1.15-.63,1.61-.42,.46-1.05,.69-1.88,.69-1.02,0-1.73-.33-2.13-1-.21-.35-.32-.82-.35-1.39h1.39Z"/><path class="g" d="M28.42,88.57v3.07c0,.51-.42,.93-.93,.93h-.17c-.51,0-.93-.42-.93-.93v-2.25c0-.45-.37-.82-.82-.82h-.6v3.05c0,1.29,1.06,2.36,2.35,2.37h.08s2.44,0,2.44,0v-5.42h-1.42Z"/><path class="g" d="M16.4,87.51c0-.45-.37-.82-.82-.82h-.6v1.89h-1.01v1.42h1.01v1.72c0,1.3,1.05,2.35,2.35,2.35v-1.42c-.44,0-.93-.43-.93-.87v-1.78h.95v-1.42h-.95v-1.07Z"/><path class="g" d="M34.93,88.58c-.98,0-1.87,.35-2.57,.94v-.94h-1.42v5.42h.6c.45,0,.82-.37,.82-.82v-.6c0-1.42,1.15-2.57,2.57-2.57h.12v-1.42h-.12Z"/><path class="g" d="M21.22,94.2c-1.6,0-2.9-1.3-2.9-2.9s1.3-2.9,2.9-2.9,2.9,1.3,2.9,2.9-1.3,2.9-2.9,2.9Zm0-4.38c-.82,0-1.48,.66-1.48,1.48s.66,1.48,1.48,1.48,1.48-.66,1.48-1.48-.66-1.48-1.48-1.48Z"/></g><g><g><path class="h" d="M27.68,18.8h1.43c1.05,0,1.89,.85,1.89,1.89v10.63h-3.32v-12.52Z"/><circle class="h" cx="29.34" cy="15.13" r="1.81"/></g><path class="h" d="M38.42,31.33v-7.09c0-1.18,.96-2.15,2.15-2.15h.38c1.18,0,2.15,.96,2.15,2.15v7.09h3.29v-7.09c0-3-2.44-5.44-5.44-5.44h-.19s-5.63,0-5.63,0v12.52h3.29Z"/></g><g><path class="f" d="M21.74,64.24v7.09c0,1.18-.96,2.15-2.15,2.15h-.38c-1.18,0-2.15-.96-2.15-2.15v-5.19c0-1.05-.85-1.89-1.89-1.89h-1.4v7.05c0,2.99,2.45,5.45,5.44,5.47h.19s5.63,0,5.63,0v-12.52h-3.29Z"/><path class="f" d="M41.33,64.24h-.38c-1.47,0-2.81,.6-3.79,1.55-.98-.96-2.32-1.55-3.79-1.55h-.19s-2.34,0-2.34,0h-3.29v12.52h3.29v-7.09c0-1.18,.96-2.15,2.15-2.15h.38c1.18,0,2.15,.96,2.15,2.15v7.09h3.29v-7.09c0-1.18,.96-2.15,2.15-2.15h.38c1.18,0,2.15,.96,2.15,2.15v7.09h3.29v-7.09c0-3-2.44-5.44-5.44-5.44Z"/><path class="f" d="M5.82,63.99h-.38c-.76,0-1.49,.16-2.15,.45v-2.65c0-1.05-.85-1.89-1.89-1.89H0v16.88H3.29v-7.34c0-1.18,.96-2.15,2.15-2.15h.38c1.18,0,2.15,.96,2.15,2.15v7.34h3.29v-7.34c0-3-2.43-5.44-5.44-5.44Z"/><path class="f" d="M73.62,64.25c-2.26,0-4.33,.82-5.93,2.17v-2.17h-3.29v12.51h1.4c1.05,0,1.89-.85,1.89-1.89v-1.39c0-3.28,2.66-5.93,5.93-5.93h.28v-3.29h-.28Z"/><path class="f" d="M55.32,77.23c-3.7,0-6.7-3.01-6.7-6.71s3.01-6.7,6.7-6.7,6.7,3.01,6.7,6.7-3.01,6.71-6.7,6.71Zm0-10.12c-1.88,0-3.41,1.53-3.41,3.41s1.53,3.42,3.41,3.42,3.41-1.53,3.41-3.42-1.53-3.41-3.41-3.41Z"/></g><g><path class="e" d="M12.76,55.37l.41,.02c.32,.01,.63,0,.92-.04s.54-.13,.74-.26c.19-.13,.37-.4,.54-.82,.16-.41,.24-.67,.21-.76l-4.6-13.07h3.64l2.73,7.79,2.15-6.49c.26-.78,.98-1.3,1.8-1.3h2.11l-4.29,12.32c-.83,2.37-1.49,3.85-1.97,4.42s-1.45,.86-2.9,.86c-.29,0-.53,0-.7,0s-.44-.02-.79-.04v-2.62Z"/><path class="e" d="M47.61,40.45v7.09c0,1.18-.96,2.15-2.15,2.15h-.38c-1.18,0-2.15-.96-2.15-2.15v-5.19c0-1.05-.85-1.89-1.89-1.89h-1.4v7.05c0,2.99,2.45,5.45,5.44,5.47h.19s5.63,0,5.63,0v-12.52h-3.29Z"/><path class="e" d="M62.65,40.45c-2.26,0-4.33,.82-5.93,2.17v-2.17h-3.29v12.51h1.4c1.05,0,1.89-.85,1.89-1.89v-1.39c0-3.28,2.66-5.93,5.93-5.93h.28v-3.29h-.28Z"/><path class="e" d="M30.89,53.44c-3.7,0-6.7-3.01-6.7-6.71s3.01-6.7,6.7-6.7,6.7,3.01,6.7,6.7-3.01,6.71-6.7,6.71Zm0-10.12c-1.88,0-3.41,1.53-3.41,3.41s1.53,3.42,3.41,3.42,3.41-1.53,3.41-3.42-1.53-3.41-3.41-3.41Z"/></g><g><path class="d" d="M27.79,3.19l1.76-1.65h-1.48l-1.32,1.2V0h-1.16V5.97h1.16v-1.71h.47c.42,0,.76,.34,.76,.76v.97h1.16v-.97c0-.86-.58-1.59-1.36-1.83Z"/><path class="d" d="M40.05,4.05c0,.42-.34,.76-.76,.76h-.13c-.42,0-.76-.34-.76-.76v-1.84c0-.37-.3-.67-.67-.67h-.49v2.49c0,1.06,.86,1.93,1.92,1.94h.07s1.99,0,1.99,0V1.54h-1.16v2.51Z"/><path class="d" d="M34.34,1.54h-.07s-1.99,0-1.99,0V5.97h1.16V3.46c0-.42,.34-.76,.76-.76h.13c.42,0,.76,.34,.76,.76v1.84c0,.37,.3,.67,.67,.67h.49V3.48c0-1.06-.86-1.93-1.92-1.94Z"/><path class="d" d="M47.06,1.54h-.13c-.52,0-.99,.21-1.34,.55-.35-.34-.82-.55-1.34-.55h-.07s-.83,0-.83,0h-1.16V5.97h1.16V3.46c0-.42,.34-.76,.76-.76h.13c.42,0,.76,.34,.76,.76v2.51h1.16V3.46c0-.42,.34-.76,.76-.76h.13c.42,0,.76,.34,.76,.76v2.51h1.16V3.46c0-1.06-.86-1.92-1.92-1.92Z"/><path class="d" d="M63.82,1.54c-.8,0-1.53,.29-2.1,.77v-.77h-1.16V5.96h.49c.37,0,.67-.3,.67-.67v-.49c0-1.16,.94-2.1,2.1-2.1h.1V1.54h-.1Z"/><path class="d" d="M18.24,1.82c-.31-.17-.67-.28-1.05-.28-1.22,0-2.22,1-2.22,2.22s1,2.22,2.22,2.22c.38,0,1.05,0,1.05,0h1.17V1.54h-1.17v.28Zm0,2.14c-.1,.49-.53,.87-1.05,.87-.59,0-1.07-.48-1.07-1.07s.48-1.07,1.07-1.07c.52,0,.96,.38,1.05,.87v.41Z"/><path class="d" d="M12.21,1.54c-.38,0-.74,.11-1.06,.28V.67C11.15,.3,10.85,0,10.48,0h-.49V5.97s1.83,0,2.22,0c1.22,0,2.22-1,2.22-2.22s-1-2.22-2.22-2.22Zm0,3.29c-.53,0-.97-.39-1.06-.89v-.36c.09-.51,.52-.89,1.06-.89,.59,0,1.07,.48,1.07,1.07s-.48,1.07-1.07,1.07Z"/><path class="d" d="M52.17,1.54c-.38,0-.74,.11-1.06,.28V.67C51.12,.3,50.82,0,50.45,0h-.49V5.97s1.83,0,2.22,0c1.22,0,2.22-1,2.22-2.22s-1-2.22-2.22-2.22Zm0,3.29c-.53,0-.97-.39-1.06-.89v-.36c.09-.51,.52-.89,1.06-.89,.59,0,1.07,.48,1.07,1.07s-.48,1.07-1.07,1.07Z"/><path class="d" d="M22.49,4.95c-.66,0-1.19-.54-1.19-1.19s.54-1.19,1.19-1.19c.44,0,.83,.25,1.03,.61h1.23c-.26-1.01-1.17-1.76-2.26-1.76-1.29,0-2.34,1.05-2.34,2.34s1.05,2.35,2.34,2.35c1.09,0,2-.75,2.26-1.77h-1.23c-.2,.37-.59,.62-1.04,.62Z"/><path class="d" d="M57.38,5c-.55,0-1-.36-1.17-.85h2.28s1.19,0,1.19,0c.02-.13,.04-.26,.04-.39,0-.09,0-.17-.02-.26,0-.05-.02-.09-.02-.14,0-.04-.01-.08-.02-.12,0,0,0,0,0,0h0c-.24-1.04-1.17-1.82-2.28-1.82-1.29,0-2.34,1.05-2.34,2.34s1.05,2.35,2.34,2.35c.97,0,1.81-.59,2.16-1.44h-1.32c-.22,.2-.51,.33-.84,.33Zm0-2.48c.5,0,.92,.29,1.12,.72h-2.24c.2-.42,.62-.72,1.12-.72Z"/></g></g></g></svg>